<svg width="52" height="52" viewBox="0 0 52 52" fill="none" xmlns="http://www.w3.org/2000/svg">
<rect width="52" height="52" rx="26" fill="#04273C"/>
<path d="M10.8087 29.5624C9.03034 28.5333 8 27.311 8 26.0003C8 22.3342 16.0589 19.3625 26 19.3625C35.9412 19.3625 44 22.3342 44 26.0003C44 27.581 42.5016 29.0327 40 30.1728" stroke="#E8F5F8" stroke-width="2" stroke-linecap="round" stroke-linejoin="round"/>
<path d="M26.0006 23.811L26.0218 23.785" stroke="#E8F5F8" stroke-width="2" stroke-linecap="round" stroke-linejoin="round"/>
<path d="M35.77 12.7246C35.7606 10.4611 35.2444 8.85935 34.1758 8.25697C31.2232 6.59265 25.171 13.1873 20.6579 22.9864C16.1447 32.7856 14.8795 42.0787 17.8321 43.743C18.8869 44.3376 20.3374 43.878 21.972 42.5947" stroke="#E8F5F8" stroke-width="2" stroke-linecap="round" stroke-linejoin="round"/>
<path d="M21.2066 8.85609C19.8858 8.00236 18.7191 7.75698 17.8321 8.25696C14.8796 9.92128 16.1447 19.2143 20.6579 29.0135C25.1711 38.8126 31.2231 45.4073 34.1757 43.743C36.8001 42.2636 36.0923 34.7569 32.7329 26.2249" stroke="#E8F5F8" stroke-width="2" stroke-linecap="round" stroke-linejoin="round"/>
</svg>
