<svg width="24" height="24" viewBox="0 0 24 24" fill="none" xmlns="http://www.w3.org/2000/svg">
<path d="M12.75 11.2499V16.4999C12.75 16.6988 12.671 16.8896 12.5303 17.0303C12.3897 17.1709 12.1989 17.2499 12 17.2499C11.8011 17.2499 11.6103 17.1709 11.4697 17.0303C11.329 16.8896 11.25 16.6988 11.25 16.4999V11.2499C11.25 11.051 11.329 10.8603 11.4697 10.7196C11.6103 10.579 11.8011 10.4999 12 10.4999C12.1989 10.4999 12.3897 10.579 12.5303 10.7196C12.671 10.8603 12.75 11.051 12.75 11.2499ZM16.2037 11.1749L15.6787 16.4249C15.6684 16.5232 15.6775 16.6226 15.7057 16.7173C15.7338 16.8121 15.7805 16.9003 15.8428 16.977C15.9052 17.0537 15.9821 17.1172 16.0692 17.1641C16.1562 17.2109 16.2516 17.2401 16.35 17.2499C16.3753 17.2513 16.4006 17.2513 16.4259 17.2499C16.6117 17.2497 16.7908 17.1805 16.9285 17.0558C17.0661 16.9311 17.1527 16.7598 17.1712 16.5749L17.6962 11.3249C17.7161 11.127 17.6566 10.9293 17.5307 10.7753C17.4048 10.6213 17.2229 10.5236 17.025 10.5037C16.8271 10.4838 16.6294 10.5433 16.4753 10.6692C16.3213 10.7951 16.2236 10.977 16.2037 11.1749ZM7.79624 11.1749C7.77635 10.977 7.67865 10.7951 7.52463 10.6692C7.37062 10.5433 7.17291 10.4838 6.97499 10.5037C6.77707 10.5236 6.59516 10.6213 6.46928 10.7753C6.34339 10.9293 6.28385 11.127 6.30374 11.3249L6.82874 16.5749C6.84739 16.7606 6.93457 16.9326 7.07326 17.0574C7.21194 17.1822 7.39216 17.2509 7.57874 17.2499C7.60403 17.2513 7.62938 17.2513 7.65468 17.2499C7.75268 17.2401 7.84778 17.211 7.93455 17.1644C8.02132 17.1178 8.09806 17.0546 8.16039 16.9783C8.22272 16.9021 8.26942 16.8143 8.29782 16.72C8.32623 16.6257 8.33578 16.5267 8.32593 16.4287L7.79624 11.1749ZM22.4934 8.34931L21.0806 18.9487C21.0313 19.3084 20.8537 19.6382 20.5805 19.8773C20.3073 20.1164 19.9568 20.2488 19.5937 20.2499H4.40624C4.04316 20.2488 3.69272 20.1164 3.41949 19.8773C3.14626 19.6382 2.96865 19.3084 2.91936 18.9487L1.50655 8.34931C1.49239 8.24337 1.50104 8.13562 1.53191 8.03328C1.56279 7.93095 1.61518 7.8364 1.68558 7.75597C1.75598 7.67554 1.84276 7.61109 1.9401 7.56693C2.03744 7.52277 2.1431 7.49993 2.24999 7.49994H6.40968L11.4375 1.75587C11.5079 1.67607 11.5944 1.61215 11.6914 1.56837C11.7884 1.52459 11.8936 1.50195 12 1.50195C12.1064 1.50195 12.2116 1.52459 12.3086 1.56837C12.4056 1.61215 12.4921 1.67607 12.5625 1.75587L17.5903 7.49994H21.75C21.8569 7.49993 21.9625 7.52277 22.0599 7.56693C22.1572 7.61109 22.244 7.67554 22.3144 7.75597C22.3848 7.8364 22.4372 7.93095 22.4681 8.03328C22.4989 8.13562 22.5076 8.24337 22.4934 8.34931ZM8.4028 7.49994H15.5972L12 3.389L8.4028 7.49994ZM20.8931 8.99994H3.10686L4.40624 18.7499H19.5937L20.8931 8.99994Z" fill="black"/>
</svg>
