<svg width="52" height="52" viewBox="0 0 52 52" fill="none" xmlns="http://www.w3.org/2000/svg">
<rect width="52" height="52" rx="26" fill="#04273C"/>
<path d="M26 18.5L28.296 20.4567L31.3032 20.6967L31.5433 23.704L33.5 26L31.5433 28.296L31.3032 31.3032L28.296 31.5433L26 33.5L23.704 31.5433L20.6967 31.3032L20.4567 28.296L18.5 26L20.4567 23.704L20.6967 20.6967L23.704 20.4567L26 18.5Z" stroke="#E8F5F8" stroke-width="1.5"/>
<path d="M23.704 31.5433L26 33.5V18.5L23.704 20.4567L20.6967 20.6967L20.4567 23.704L18.5 26L20.4567 28.296L20.6967 31.3032L23.704 31.5433Z" fill="#E8F5F8"/>
<path d="M39.5 13.4V38.6C39.5 39.0971 39.0971 39.5 38.6 39.5H13.4C12.9029 39.5 12.5 39.0971 12.5 38.6V13.4C12.5 12.9029 12.9029 12.5 13.4 12.5H38.6C39.0971 12.5 39.5 12.9029 39.5 13.4Z" stroke="#E8F5F8" stroke-width="1.5" stroke-linecap="round" stroke-linejoin="round"/>
</svg>
