<svg width="52" height="52" viewBox="0 0 52 52" fill="none" xmlns="http://www.w3.org/2000/svg">
<rect width="52" height="52" rx="26" fill="#04273C"/>
<path d="M12.5 32V20C12.5 15.8579 15.8579 12.5 20 12.5H32C36.1421 12.5 39.5 15.8579 39.5 20V32C39.5 36.1421 36.1421 39.5 32 39.5H20C15.8579 39.5 12.5 36.1421 12.5 32Z" stroke="#E8F5F8" stroke-width="1.5"/>
<path d="M32.75 29.75C32.75 29.75 30.5 32.75 26 32.75C21.5 32.75 19.25 29.75 19.25 29.75" stroke="#E8F5F8" stroke-width="1.5" stroke-linecap="round" stroke-linejoin="round"/>
<path d="M20.75 23C20.3358 23 20 22.6642 20 22.25C20 21.8358 20.3358 21.5 20.75 21.5C21.1642 21.5 21.5 21.8358 21.5 22.25C21.5 22.6642 21.1642 23 20.75 23Z" fill="#E8F5F8" stroke="#E8F5F8" stroke-width="1.5" stroke-linecap="round" stroke-linejoin="round"/>
<path d="M31.25 23C30.8359 23 30.5 22.6642 30.5 22.25C30.5 21.8358 30.8359 21.5 31.25 21.5C31.6641 21.5 32 21.8358 32 22.25C32 22.6642 31.6641 23 31.25 23Z" fill="#E8F5F8" stroke="#E8F5F8" stroke-width="1.5" stroke-linecap="round" stroke-linejoin="round"/>
</svg>
