<svg width="52" height="52" viewBox="0 0 52 52" fill="none" xmlns="http://www.w3.org/2000/svg">
<rect width="52" height="52" rx="26" fill="#04273C"/>
<path d="M14 25.2497L13.2724 25.4317C11.9369 25.7656 11 26.9654 11 28.3421V31.1573C11 32.534 11.9369 33.7338 13.2724 34.0677L15.8817 34.7201C16.4498 34.8622 17 34.4326 17 33.847V25.6525C17 25.0669 16.4498 24.6373 15.8817 24.7793L14 25.2497ZM14 25.2497V24.5C14 17.8726 19.3726 12.5 26 12.5C32.6275 12.5 38 17.8726 38 24.5V25.2497M38 25.2497L38.7276 25.4317C40.0631 25.7656 41 26.9654 41 28.3421V31.1573C41 32.534 40.0631 33.7338 38.7276 34.0677L38 34.2497M38 25.2497L36.1183 24.7793C35.5502 24.6373 35 25.0669 35 25.6525V33.847C35 34.4326 35.5502 34.8622 36.1183 34.7201L38 34.2497M38 34.2497V35V35.75C38 37.4069 36.6569 38.75 35 38.75H30.5M30.5 38.75C30.5 37.5074 29.4926 36.5 28.25 36.5H23.75C22.5074 36.5 21.5 37.5074 21.5 38.75C21.5 39.9926 22.5074 41 23.75 41H28.25C29.4926 41 30.5 39.9926 30.5 38.75Z" stroke="#E8F5F8" stroke-width="1.5"/>
</svg>
