<svg width="52" height="52" viewBox="0 0 52 52" fill="none" xmlns="http://www.w3.org/2000/svg">
<rect width="52" height="52" rx="26" fill="#04273C"/>
<path d="M12.5588 14.4409C12.5217 14.163 12.6186 13.8851 12.847 13.7225C13.8908 12.9793 17.4713 11 26 11C34.5287 11 38.1092 12.9793 39.153 13.7225C39.3813 13.8851 39.4782 14.163 39.4412 14.4409L36.8924 33.5567C36.6452 35.4116 35.5466 37.0448 33.9219 37.9731L33.4421 38.2473C28.8306 40.8825 23.1693 40.8825 18.5579 38.2473L18.0781 37.9731C16.4534 37.0448 15.3549 35.4116 15.1076 33.5567L12.5588 14.4409Z" stroke="#E8F5F8" stroke-width="1.5"/>
<path d="M12.5 15.5C16.3571 19.5 35.6429 19.4999 39.5 15.5" stroke="#E8F5F8" stroke-width="1.5"/>
<path d="M14 27.5C15.5473 29.3051 19.8876 30.2957 24.5 30.4715C30.1082 30.6854 36.1187 29.6948 38 27.5" stroke="#E8F5F8" stroke-width="1.5"/>
<path d="M30.5 30.2345V38.75" stroke="#E8F5F8" stroke-width="1.5"/>
<path d="M14 27.5C17.4286 23.4999 34.5714 23.5001 38 27.5" stroke="#E8F5F8" stroke-width="1.5"/>
</svg>
